<svg width="15" height="14" viewBox="0 0 15 14" fill="none" xmlns="http://www.w3.org/2000/svg">
<path fill-rule="evenodd" clip-rule="evenodd" d="M13.8334 7C13.8334 10.3137 11.1471 13 7.83337 13C4.51967 13 1.83337 10.3137 1.83337 7C1.83337 3.68629 4.51967 1 7.83337 1C11.1471 1 13.8334 3.68629 13.8334 7ZM14.8334 7C14.8334 10.866 11.6994 14 7.83337 14C3.96738 14 0.833374 10.866 0.833374 7C0.833374 3.13401 3.96738 0 7.83337 0C11.6994 0 14.8334 3.13401 14.8334 7ZM7.33337 3C7.33337 2.72386 7.55723 2.5 7.83337 2.5C8.10952 2.5 8.33337 2.72386 8.33337 3V6.75412L10.723 7.9687C10.9782 8.09839 11.0723 8.41558 10.9292 8.66344C10.7965 8.89329 10.5071 8.97915 10.2705 8.85889L7.80292 7.60467C7.73077 7.56799 7.6715 7.51633 7.62682 7.45548C7.45374 7.37686 7.33337 7.20249 7.33337 7V3Z" fill="#AAAAAA"/>
</svg>
